PathFileType	4	(X/Y/Z)	C:\Users\WrightLab\Desktop\Jo\P5V11.trc
DataRate	CameraRate	NumFrames	NumMarkers	Units	OrigDataRate	OrigDataStartFrame	OrigNumFrames
100.00	100.00	       9	19	mm	100.00	202	       804
Frame#	Time	Headset_Front			Headset_Back			Headset_Left			Headset_Right			Left_Shoulder			Right_Shoulder			Sternum			C7			Left Elbow			Right Elbow			Left Wrist			Right Wrist			Left ASIS			Right ASIS			S2			Left Knee			Right Knee			Left Ankle			Right Ankle			
		X1	Y1	Z1	X2	Y2	Z2	X3	Y3	Z3	X4	Y4	Z4	X5	Y5	Z5	X6	Y6	Z6	X7	Y7	Z7	X8	Y8	Z8	X9	Y9	Z9	X10	Y10	Z10	X11	Y11	Z11	X12	Y12	Z12	X13	Y13	Z13	X14	Y14	Z14	X15	Y15	Z15	X16	Y16	Z16	X17	Y17	Z17	X18	Y18	Z18	X19	Y19	Z19	

202	2.010	108.39069	1212.57861	-951.66327	-32.87369	892.63287	-1037.64917																-232.55801	1500.29065	-1180.79272				-485.53430	1149.40112	-1058.77698	105.13769	925.59906	-1078.25830	-474.94025	901.15961	-973.47766				-301.51358	916.24609	-969.78064	-231.26462	948.47803	-1281.17871	-64.60365	474.13470	-1011.47168	-399.56726	459.28763	-1091.42065	-149.67386	69.86125	-1026.06665	-365.73840	105.70618	-1341.75439	
203	2.020	113.36684	1213.99341	-945.17322	-28.72094	893.59436	-1032.75854																-229.29137	1501.01733	-1175.86304				-481.86841	1150.74719	-1053.19165	108.70377	926.64313	-1074.77893	-470.38998	902.10046	-966.23633				-296.82623	917.82898	-961.37732	-228.23553	948.71887	-1275.00806	-61.69756	474.38751	-1009.35236	-395.68057	460.44208	-1082.23511	-149.30692	69.86794	-1025.79761	-365.82529	109.89794	-1338.09143	
204	2.030	115.83527	1215.75146	-938.05157	-25.41266	894.46106	-1028.66711							-64.83982	1546.36621	-849.51355							-226.10384	1501.65723	-1170.79089				-477.57339	1151.71912	-1046.11304	111.30005	925.95197	-1070.38904	-467.42087	902.59393	-960.41986				-291.63165	918.50793	-953.40265	-225.02386	949.35718	-1268.70996	-59.45129	474.87918	-1007.61371	-392.59576	461.96146	-1072.82983	-148.84828	70.13808	-1024.74414	-365.91013	115.88127	-1334.07068	
205	2.040	121.48122	1217.17603	-930.71216	-21.18381	895.22290	-1024.05396																-222.98004	1502.33813	-1166.07898				-473.67938	1153.12830	-1039.71631	115.27799	926.71118	-1066.57849	-464.28537	904.06635	-953.79010				-285.87003	920.62732	-946.38361	-222.07318	950.22644	-1263.96533	-56.68194	475.74429	-1006.31879	-387.51767	461.51260	-1063.81042	-147.45381	70.40794	-1024.53345	-364.88940	121.25811	-1327.17273	
206	2.050	123.93889	1218.93457	-923.55200	-17.14238	896.79254	-1020.44952							-55.93453	1548.50500	-840.52985							-219.80486	1502.93896	-1161.03735				-469.24091	1153.29773	-1033.76978	118.41048	926.94598	-1061.95227	-459.37830	904.86823	-947.19781				-280.78064	922.03766	-939.06427	-218.79213	950.80902	-1257.95593	-53.42986	475.10373	-1004.96790	-383.30496	463.17249	-1053.25403	-146.83617	70.39494	-1024.29089	-364.63846	128.14757	-1321.25977	
207	2.060	125.89301	1221.17480	-917.35999	-12.77465	897.68414	-1017.10651																-216.68661	1503.64856	-1156.49951				-465.35062	1154.13159	-1026.42834	122.75159	928.07416	-1058.69397	-455.64499	905.89142	-940.56970				-274.92734	922.90875	-929.99963	-215.64362	950.84894	-1251.55884	-52.21880	474.40497	-1003.72632	-379.27243	464.56943	-1042.83337	-142.97269	73.14675	-1020.97406	-363.75455	133.73697	-1313.46558	
208	2.070	130.75587	1222.39539	-910.05963	-8.24453	899.66125	-1012.31519																-213.41783	1504.49524	-1151.44800				-461.54831	1155.30664	-1020.14825	126.16805	929.35968	-1055.01367	-452.01511	906.75409	-933.73724				-270.30829	926.13434	-923.29926	-212.53612	951.09381	-1245.23975	-47.65550	474.65671	-1002.95886	-373.51077	465.84625	-1031.29956	-147.02258	69.04877	-1024.41028	-365.05011	141.13542	-1303.22229	
209	2.080	133.77534	1223.98145	-902.68719	-4.12299	900.78387	-1009.94806							-43.60067	1551.22571	-826.39844							-210.16472	1505.29297	-1146.36096				-458.17868	1156.22876	-1013.57471	128.60463	929.53992	-1050.64404	-447.90588	908.56207	-926.99994				-265.60657	927.11945	-916.96588	-209.73801	951.91492	-1239.92651	-45.54513	473.59348	-1003.39679	-367.48343	467.62009	-1020.20325	-148.33653	67.20550	-1024.97668	-365.32913	150.30960	-1293.89685	
210	2.090	138.81918	1225.66919	-896.50037	0.71150	901.99963	-1007.31592																-207.07376	1505.64685	-1141.67004				-454.20367	1156.97656	-1006.76715	132.76912	931.14655	-1046.32678	-444.26520	909.84601	-920.18243				-258.90775	928.38416	-910.19623	-206.98479	952.24561	-1234.10791	-40.62206	473.50229	-1003.66473	-360.96207	467.69504	-1009.06689	-147.40155	67.55849	-1024.66772	-365.39413	158.52718	-1282.32507	
